<svg width="18" height="18" viewBox="0 0 18 18" fill="none" xmlns="http://www.w3.org/2000/svg">
<path d="M7.54175 9.83317C7.54175 10.4082 7.07508 10.8748 6.50008 10.8748C5.92508 10.8748 5.45841 10.4082 5.45841 9.83317C5.45841 9.25817 5.92508 8.7915 6.50008 8.7915C7.07508 8.7915 7.54175 9.25817 7.54175 9.83317ZM11.5001 8.7915C10.9251 8.7915 10.4584 9.25817 10.4584 9.83317C10.4584 10.4082 10.9251 10.8748 11.5001 10.8748C12.0751 10.8748 12.5417 10.4082 12.5417 9.83317C12.5417 9.25817 12.0751 8.7915 11.5001 8.7915ZM17.3334 8.99984C17.3334 13.5998 13.6001 17.3332 9.00008 17.3332C4.40008 17.3332 0.666748 13.5998 0.666748 8.99984C0.666748 4.39984 4.40008 0.666504 9.00008 0.666504C13.6001 0.666504 17.3334 4.39984 17.3334 8.99984ZM15.6667 8.99984C15.6667 8.34984 15.5667 7.72484 15.3917 7.13317C14.8084 7.25817 14.2084 7.33317 13.5834 7.33317C10.9751 7.33317 8.65008 6.13317 7.11675 4.25817C6.24175 6.3915 4.50008 8.0665 2.33341 8.88317C2.34175 8.9165 2.33341 8.95817 2.33341 8.99984C2.33341 12.6748 5.32508 15.6665 9.00008 15.6665C12.6751 15.6665 15.6667 12.6748 15.6667 8.99984Z" fill="#383E6A"/>
</svg>
