<svg width="18" height="18" viewBox="0 0 18 18" fill="none" xmlns="http://www.w3.org/2000/svg">
<path fill-rule="evenodd" clip-rule="evenodd" d="M9.0163 0.0673828C4.05559 0.0673828 0.032959 4.15785 0.032959 9.20409C0.032959 13.241 2.60696 16.6659 6.17631 17.874C6.62527 17.9586 6.7901 17.6758 6.7901 17.4345C6.7901 17.2166 6.78177 16.4969 6.7779 15.7334C4.27873 16.2861 3.75137 14.6554 3.75137 14.6554C3.34273 13.5993 2.75393 13.3185 2.75393 13.3185C1.93888 12.7514 2.81537 12.763 2.81537 12.763C3.71745 12.8273 4.19245 13.7046 4.19245 13.7046C4.99367 15.1014 6.29398 14.6976 6.80661 14.4641C6.88724 13.8737 7.12005 13.4704 7.37696 13.2424C5.38164 13.0113 3.28412 12.2279 3.28412 8.72688C3.28412 7.72934 3.63504 6.91428 4.2097 6.27442C4.11643 6.04414 3.80894 5.11499 4.29673 3.85645C4.29673 3.85645 5.05109 3.61089 6.76779 4.79301C7.48436 4.59057 8.25286 4.48905 9.0163 4.48557C9.77974 4.48905 10.5488 4.59057 11.2667 4.79301C12.9814 3.61089 13.7347 3.85645 13.7347 3.85645C14.2237 5.11499 13.916 6.04414 13.8227 6.27442C14.3987 6.91428 14.7473 7.72934 14.7473 8.72688C14.7473 12.2362 12.6458 13.0089 10.6454 13.2351C10.9676 13.5186 11.2547 14.0747 11.2547 14.9271C11.2547 16.1495 11.2443 17.1334 11.2443 17.4345C11.2443 17.6776 11.406 17.9625 11.8613 17.8728C15.4288 16.6633 17.9995 13.2396 17.9995 9.20409C17.9995 4.15785 13.9775 0.0673828 9.0163 0.0673828Z" fill="#161827"/>
<path fill-rule="evenodd" clip-rule="evenodd" d="M3.4354 13.1858C3.41562 13.2313 3.3454 13.2448 3.28144 13.2136C3.21628 13.1838 3.17969 13.1219 3.20081 13.0764C3.22015 13.0296 3.29051 13.0168 3.35552 13.0478C3.42083 13.0777 3.45802 13.1402 3.4354 13.1858Z" fill="#161827"/>
<path fill-rule="evenodd" clip-rule="evenodd" d="M3.79927 13.5985C3.75643 13.6389 3.67268 13.6202 3.61585 13.5563C3.55709 13.4926 3.54608 13.4074 3.58952 13.3664C3.6337 13.326 3.71493 13.3449 3.77383 13.4086C3.83259 13.4731 3.84405 13.5577 3.79927 13.5985Z" fill="#161827"/>
<path fill-rule="evenodd" clip-rule="evenodd" d="M4.15347 14.1248C4.09843 14.1636 4.00843 14.1272 3.95279 14.0459C3.89775 13.9647 3.89775 13.8672 3.95398 13.8282C4.00977 13.7892 4.09843 13.8243 4.15481 13.9049C4.2097 13.9874 4.2097 14.085 4.15347 14.1248Z" fill="#161827"/>
<path fill-rule="evenodd" clip-rule="evenodd" d="M4.63873 14.6331C4.58949 14.6884 4.48461 14.6735 4.40785 14.5982C4.32931 14.5245 4.30744 14.4199 4.35683 14.3647C4.40666 14.3093 4.51213 14.3249 4.58949 14.3997C4.66744 14.4732 4.69124 14.5785 4.63873 14.6331Z" fill="#161827"/>
<path fill-rule="evenodd" clip-rule="evenodd" d="M5.30815 14.9283C5.28643 14.9999 5.18542 15.0324 5.08367 15.002C4.98207 14.9707 4.91557 14.8869 4.9361 14.8145C4.95722 14.7425 5.05868 14.7086 5.16117 14.7412C5.26263 14.7723 5.32927 14.8555 5.30815 14.9283Z" fill="#161827"/>
<path fill-rule="evenodd" clip-rule="evenodd" d="M6.04332 14.9831C6.04585 15.0584 5.95957 15.1209 5.85276 15.1221C5.74536 15.1247 5.65848 15.0637 5.65729 14.9896C5.65729 14.9135 5.74164 14.8516 5.84904 14.8498C5.95585 14.8477 6.04332 14.9082 6.04332 14.9831Z" fill="#161827"/>
<path fill-rule="evenodd" clip-rule="evenodd" d="M6.72747 14.8646C6.74026 14.9382 6.66603 15.0137 6.55997 15.0336C6.45569 15.0531 6.35914 15.0078 6.3459 14.9348C6.33296 14.8595 6.40853 14.784 6.51266 14.7645C6.61888 14.7457 6.71393 14.7899 6.72747 14.8646Z" fill="#161827"/>
</svg>
