<svg width="19" height="18" viewBox="0 0 19 18" fill="none" xmlns="http://www.w3.org/2000/svg">
<path fill-rule="evenodd" clip-rule="evenodd" d="M9.5163 0.0673828C4.55559 0.0673828 0.532959 4.15785 0.532959 9.20409C0.532959 13.241 3.10696 16.6659 6.67631 17.874C7.12527 17.9586 7.2901 17.6758 7.2901 17.4345C7.2901 17.2166 7.28177 16.4969 7.2779 15.7334C4.77873 16.2861 4.25137 14.6554 4.25137 14.6554C3.84273 13.5993 3.25393 13.3185 3.25393 13.3185C2.43888 12.7514 3.31537 12.763 3.31537 12.763C4.21745 12.8273 4.69245 13.7046 4.69245 13.7046C5.49367 15.1014 6.79398 14.6976 7.30661 14.4641C7.38724 13.8737 7.62005 13.4704 7.87696 13.2424C5.88164 13.0113 3.78412 12.2279 3.78412 8.72688C3.78412 7.72934 4.13504 6.91428 4.7097 6.27442C4.61643 6.04414 4.30894 5.11499 4.79673 3.85645C4.79673 3.85645 5.55109 3.61089 7.26779 4.79302C7.98436 4.59057 8.75286 4.48905 9.5163 4.48557C10.2797 4.48905 11.0488 4.59057 11.7667 4.79302C13.4814 3.61089 14.2347 3.85645 14.2347 3.85645C14.7237 5.11499 14.416 6.04414 14.3227 6.27442C14.8987 6.91428 15.2473 7.72934 15.2473 8.72688C15.2473 12.2362 13.1458 13.0089 11.1454 13.2351C11.4676 13.5186 11.7547 14.0747 11.7547 14.9271C11.7547 16.1495 11.7443 17.1334 11.7443 17.4345C11.7443 17.6776 11.906 17.9625 12.3613 17.8728C15.9288 16.6633 18.4995 13.2396 18.4995 9.20409C18.4995 4.15785 14.4775 0.0673828 9.5163 0.0673828Z" fill="#EAF0F6"/>
<path fill-rule="evenodd" clip-rule="evenodd" d="M3.9354 13.1858C3.91562 13.2313 3.8454 13.2448 3.78144 13.2136C3.71628 13.1838 3.67969 13.1219 3.70081 13.0764C3.72015 13.0296 3.79051 13.0168 3.85552 13.0478C3.92083 13.0777 3.95802 13.1402 3.9354 13.1858Z" fill="#EAF0F6"/>
<path fill-rule="evenodd" clip-rule="evenodd" d="M4.29927 13.5985C4.25643 13.6389 4.17268 13.6202 4.11585 13.5563C4.05709 13.4926 4.04608 13.4074 4.08952 13.3664C4.1337 13.326 4.21493 13.3449 4.27383 13.4086C4.33259 13.4731 4.34405 13.5577 4.29927 13.5985Z" fill="#EAF0F6"/>
<path fill-rule="evenodd" clip-rule="evenodd" d="M4.65347 14.1248C4.59843 14.1636 4.50843 14.1272 4.45279 14.0459C4.39775 13.9647 4.39775 13.8672 4.45398 13.8282C4.50977 13.7892 4.59843 13.8243 4.65481 13.9049C4.7097 13.9874 4.7097 14.085 4.65347 14.1248Z" fill="#EAF0F6"/>
<path fill-rule="evenodd" clip-rule="evenodd" d="M5.13873 14.6331C5.08949 14.6884 4.98461 14.6735 4.90785 14.5982C4.82931 14.5245 4.80744 14.4199 4.85683 14.3647C4.90666 14.3093 5.01213 14.3249 5.08949 14.3997C5.16744 14.4732 5.19124 14.5785 5.13873 14.6331Z" fill="#EAF0F6"/>
<path fill-rule="evenodd" clip-rule="evenodd" d="M5.80815 14.9283C5.78643 14.9999 5.68542 15.0324 5.58367 15.002C5.48207 14.9707 5.41557 14.8869 5.4361 14.8145C5.45722 14.7425 5.55868 14.7086 5.66117 14.7412C5.76263 14.7723 5.82927 14.8555 5.80815 14.9283Z" fill="#EAF0F6"/>
<path fill-rule="evenodd" clip-rule="evenodd" d="M6.54332 14.9831C6.54585 15.0584 6.45957 15.1209 6.35276 15.1221C6.24536 15.1247 6.15848 15.0637 6.15729 14.9896C6.15729 14.9135 6.24164 14.8516 6.34904 14.8498C6.45585 14.8477 6.54332 14.9082 6.54332 14.9831Z" fill="#EAF0F6"/>
<path fill-rule="evenodd" clip-rule="evenodd" d="M7.22747 14.8646C7.24026 14.9382 7.16603 15.0137 7.05997 15.0336C6.95569 15.0531 6.85914 15.0078 6.8459 14.9348C6.83296 14.8595 6.90853 14.784 7.01266 14.7645C7.11888 14.7457 7.21393 14.7899 7.22747 14.8646Z" fill="#EAF0F6"/>
</svg>
