<svg width="16" height="18" viewBox="0 0 16 18" fill="none" xmlns="http://www.w3.org/2000/svg">
<path d="M11.3333 3.99984V8.99984C11.3333 9.9165 12.0833 10.6665 13 10.6665H13.8333V16.4998C13.8333 16.9582 14.2083 17.3332 14.6667 17.3332C15.125 17.3332 15.5 16.9582 15.5 16.4998V1.60817C15.5 1.0665 14.9917 0.666504 14.4667 0.791504C12.6667 1.23317 11.3333 2.75817 11.3333 3.99984ZM7.16667 6.49984H5.5V1.49984C5.5 1.0415 5.125 0.666504 4.66667 0.666504C4.20833 0.666504 3.83333 1.0415 3.83333 1.49984V6.49984H2.16667V1.49984C2.16667 1.0415 1.79167 0.666504 1.33333 0.666504C0.875 0.666504 0.5 1.0415 0.5 1.49984V6.49984C0.5 8.3415 1.99167 9.83317 3.83333 9.83317V16.4998C3.83333 16.9582 4.20833 17.3332 4.66667 17.3332C5.125 17.3332 5.5 16.9582 5.5 16.4998V9.83317C7.34167 9.83317 8.83333 8.3415 8.83333 6.49984V1.49984C8.83333 1.0415 8.45833 0.666504 8 0.666504C7.54167 0.666504 7.16667 1.0415 7.16667 1.49984V6.49984Z" fill="#383E6A"/>
</svg>
