<svg width="18" height="14" viewBox="0 0 18 14" fill="none" xmlns="http://www.w3.org/2000/svg">
<path d="M17.3 5.1085L16.1083 0.941829C16.0083 0.583496 15.6833 0.333496 15.3083 0.333496H2.69166C2.31666 0.333496 1.99166 0.583496 1.89166 0.941829L0.699993 5.1085C0.549993 5.6335 0.949993 6.16683 1.49999 6.16683H3.33333L2.45833 12.7335C2.39166 13.2252 2.77499 13.6668 3.27499 13.6668C3.69166 13.6668 4.04166 13.3585 4.09166 12.9502L4.55833 9.50016H13.45L13.9083 12.9502C13.9667 13.3585 14.3167 13.6668 14.725 13.6668C15.225 13.6668 15.6083 13.2252 15.5417 12.7335L14.6667 6.16683H16.5C17.05 6.16683 17.45 5.6335 17.3 5.1085ZM4.77499 7.8335L4.99999 6.16683H13L13.225 7.8335H4.77499Z" fill="#383E6A"/>
</svg>
